<?xml version="1.0" encoding="UTF-8" standalone="no"?>
<!DOCTYPE svg PUBLIC "-//W3C//DTD SVG 1.1//EN"
 "http://www.w3.org/Graphics/SVG/1.1/DTD/svg11.dtd">
<!-- Generated by graphviz version 2.40.1 (20161225.0304)
 -->
<!-- Title: gocallvis Pages: 1 -->
<svg width="486pt" height="863pt"
 viewBox="0.00 0.00 485.71 863.10" xmlns="http://www.w3.org/2000/svg" xmlns:xlink="http://www.w3.org/1999/xlink">
<g id="graph0" class="graph" transform="scale(1 1) rotate(0) translate(0 863.0986)">
<title>gocallvis</title>
<polygon fill="#d3d3d3" stroke="transparent" points="0,0 0,-863.0986 485.7054,-863.0986 485.7054,0 0,0"/>
<text text-anchor="middle" x="80.748" y="-8.8986" font-family="Arial" font-size="14.00" fill="#000000">gopros/cmdb/src/cmdb/</text>
<g id="clust1" class="cluster">
<title>cluster_focus</title>
<polygon fill="#e6ecfa" stroke="#000000" stroke-width=".5" points="8,-32.0986 8,-855.0986 477.7054,-855.0986 477.7054,-32.0986 8,-32.0986"/>
<text text-anchor="middle" x="242.8527" y="-836.6986" font-family="Arial" font-size="18.00" fill="#000000">main</text>
</g>
<!-- gopros/cmdb/src/cmdb/.init -->
<g id="node1" class="node">
<title>gopros/cmdb/src/cmdb/.init</title>
<ellipse fill="#add8e6" stroke="#000000" stroke-width=".5" cx="43" cy="-757.0986" rx="27" ry="18"/>
<text text-anchor="middle" x="43" y="-754.406" font-family="Verdana" font-size="14.00" fill="#000000">init</text>
</g>
<!-- flag.String -->
<g id="node2" class="node">
<title>flag.String</title>
<ellipse fill="#adedad" stroke="#000000" stroke-width="1.5" cx="306.3527" cy="-721.0986" rx="35.8982" ry="24.1249"/>
<text text-anchor="middle" x="306.3527" y="-726.9133" font-family="Verdana" font-size="14.00" fill="#000000">flag</text>
<text text-anchor="middle" x="306.3527" y="-709.8986" font-family="Verdana" font-size="14.00" fill="#000000">String</text>
</g>
<!-- gopros/cmdb/src/cmdb/.init&#45;&gt;flag.String -->
<g id="edge1" class="edge">
<title>gopros/cmdb/src/cmdb/.init&#45;&gt;flag.String</title>
<path fill="none" stroke="#8b4513" d="M69.7009,-753.4486C114.6633,-747.3023 205.9646,-734.8216 261.088,-727.2863"/>
<polygon fill="#8b4513" stroke="#8b4513" points="261.8393,-730.7162 271.2731,-725.894 260.8911,-723.7807 261.8393,-730.7162"/>
</g>
<!-- flag.Bool -->
<g id="node3" class="node">
<title>flag.Bool</title>
<ellipse fill="#adedad" stroke="#000000" stroke-width="1.5" cx="306.3527" cy="-794.0986" rx="27.3545" ry="24.1249"/>
<text text-anchor="middle" x="306.3527" y="-799.9133" font-family="Verdana" font-size="14.00" fill="#000000">flag</text>
<text text-anchor="middle" x="306.3527" y="-782.8986" font-family="Verdana" font-size="14.00" fill="#000000">Bool</text>
</g>
<!-- gopros/cmdb/src/cmdb/.init&#45;&gt;flag.Bool -->
<g id="edge2" class="edge">
<title>gopros/cmdb/src/cmdb/.init&#45;&gt;flag.Bool</title>
<path fill="none" stroke="#8b4513" d="M69.7009,-760.85C116.8991,-767.4812 215.1592,-781.2863 269.0326,-788.8553"/>
<polygon fill="#8b4513" stroke="#8b4513" points="268.7975,-792.3566 279.1872,-790.282 269.7715,-785.4246 268.7975,-792.3566"/>
</g>
<!-- gopros/cmdb/src/cmdb/.main -->
<g id="node4" class="node">
<title>gopros/cmdb/src/cmdb/.main</title>
<ellipse fill="#add8e6" stroke="#000000" stroke-width=".5" cx="43" cy="-356.0986" rx="27" ry="18"/>
<text text-anchor="middle" x="43" y="-353.406" font-family="Verdana" font-size="14.00" fill="#000000">main</text>
</g>
<!-- flag.Parse -->
<g id="node5" class="node">
<title>flag.Parse</title>
<ellipse fill="#adedad" stroke="#000000" stroke-width="1.5" cx="306.3527" cy="-64.0986" rx="32.7199" ry="24.1249"/>
<text text-anchor="middle" x="306.3527" y="-69.9133" font-family="Verdana" font-size="14.00" fill="#000000">flag</text>
<text text-anchor="middle" x="306.3527" y="-52.8986" font-family="Verdana" font-size="14.00" fill="#000000">Parse</text>
</g>
<!-- gopros/cmdb/src/cmdb/.main&#45;&gt;flag.Parse -->
<g id="edge3" class="edge">
<title>gopros/cmdb/src/cmdb/.main&#45;&gt;flag.Parse</title>
<path fill="none" stroke="#8b4513" d="M44.4062,-337.9287C49.0714,-290.8235 68.3085,-163.9943 143,-100.0986 176.3408,-71.5769 227.2251,-64.1818 263.3324,-62.9108"/>
<polygon fill="#8b4513" stroke="#8b4513" points="263.6367,-66.4054 273.562,-62.699 263.4917,-59.4069 263.6367,-66.4054"/>
</g>
<!-- gopros/cmdb/src/cmdb/log.Info -->
<g id="node6" class="node">
<title>gopros/cmdb/src/cmdb/log.Info</title>
<ellipse fill="#ffe4b5" stroke="#000000" stroke-width="1.5" cx="306.3527" cy="-137.0986" rx="27" ry="24.1249"/>
<text text-anchor="middle" x="306.3527" y="-142.9133" font-family="Verdana" font-size="14.00" fill="#000000">log</text>
<text text-anchor="middle" x="306.3527" y="-125.8986" font-family="Verdana" font-size="14.00" fill="#000000">Info</text>
</g>
<!-- gopros/cmdb/src/cmdb/.main&#45;&gt;gopros/cmdb/src/cmdb/log.Info -->
<g id="edge4" class="edge">
<title>gopros/cmdb/src/cmdb/.main&#45;&gt;gopros/cmdb/src/cmdb/log.Info</title>
<path fill="none" stroke="#8b4513" d="M47.3963,-338.2403C57.4875,-301.2006 85.9539,-215.9098 143,-173.0986 179.7841,-145.4934 233.5712,-138.2656 269.2475,-136.7677"/>
<polygon fill="#8b4513" stroke="#8b4513" points="269.3551,-140.2662 279.2494,-136.4776 269.1521,-133.2691 269.3551,-140.2662"/>
</g>
<!-- gopros/cmdb/src/cmdb/init_servers.BeginInitServerAuto -->
<g id="node7" class="node">
<title>gopros/cmdb/src/cmdb/init_servers.BeginInitServerAuto</title>
<ellipse fill="#ffe4b5" stroke="#000000" stroke-width="1.5" cx="306.3527" cy="-210.0986" rx="106.4266" ry="24.1249"/>
<text text-anchor="middle" x="306.3527" y="-215.9133" font-family="Verdana" font-size="14.00" fill="#000000">init_servers</text>
<text text-anchor="middle" x="306.3527" y="-198.8986" font-family="Verdana" font-size="14.00" fill="#000000">BeginInitServerAuto</text>
</g>
<!-- gopros/cmdb/src/cmdb/.main&#45;&gt;gopros/cmdb/src/cmdb/init_servers.BeginInitServerAuto -->
<g id="edge5" class="edge">
<title>gopros/cmdb/src/cmdb/.main&#45;&gt;gopros/cmdb/src/cmdb/init_servers.BeginInitServerAuto</title>
<path fill="none" stroke="#8b4513" d="M53.3111,-339.3349C69.3245,-314.8048 102.5756,-269.5105 143,-246.0986 160.7089,-235.8425 181.046,-228.505 201.2227,-223.2563"/>
<polygon fill="#8b4513" stroke="#8b4513" points="202.2181,-226.6162 211.1024,-220.8439 200.5576,-219.816 202.2181,-226.6162"/>
</g>
<!-- strings.Split -->
<g id="node8" class="node">
<title>strings.Split</title>
<ellipse fill="#adedad" stroke="#000000" stroke-width="1.5" cx="306.3527" cy="-283.0986" rx="39.4946" ry="24.1249"/>
<text text-anchor="middle" x="306.3527" y="-288.9133" font-family="Verdana" font-size="14.00" fill="#000000">strings</text>
<text text-anchor="middle" x="306.3527" y="-271.8986" font-family="Verdana" font-size="14.00" fill="#000000">Split</text>
</g>
<!-- gopros/cmdb/src/cmdb/.main&#45;&gt;strings.Split -->
<g id="edge6" class="edge">
<title>gopros/cmdb/src/cmdb/.main&#45;&gt;strings.Split</title>
<path fill="none" stroke="#8b4513" d="M66.1331,-346.5064C86.208,-338.4326 116.1805,-326.975 143,-319.0986 181.3424,-307.8383 225.6632,-298.2817 258.4568,-291.8508"/>
<polygon fill="#8b4513" stroke="#8b4513" points="259.5232,-295.2095 268.6768,-289.8745 258.1941,-288.3368 259.5232,-295.2095"/>
</g>
<!-- gopros/cmdb/src/cmdb/log.Errore -->
<g id="node9" class="node">
<title>gopros/cmdb/src/cmdb/log.Errore</title>
<ellipse fill="#ffe4b5" stroke="#000000" stroke-width="1.5" cx="306.3527" cy="-356.0986" rx="36.4922" ry="24.1249"/>
<text text-anchor="middle" x="306.3527" y="-361.9133" font-family="Verdana" font-size="14.00" fill="#000000">log</text>
<text text-anchor="middle" x="306.3527" y="-344.8986" font-family="Verdana" font-size="14.00" fill="#000000">Errore</text>
</g>
<!-- gopros/cmdb/src/cmdb/.main&#45;&gt;gopros/cmdb/src/cmdb/log.Errore -->
<g id="edge7" class="edge">
<title>gopros/cmdb/src/cmdb/.main&#45;&gt;gopros/cmdb/src/cmdb/log.Errore</title>
<path fill="none" stroke="#8b4513" d="M70.1915,-356.0986C114.8845,-356.0986 204.3977,-356.0986 259.4717,-356.0986"/>
<polygon fill="#8b4513" stroke="#8b4513" points="259.6698,-359.5987 269.6697,-356.0986 259.6697,-352.5987 259.6698,-359.5987"/>
</g>
<!-- gopros/cmdb/src/cmdb/log.Errorf -->
<g id="node10" class="node">
<title>gopros/cmdb/src/cmdb/log.Errorf</title>
<ellipse fill="#ffe4b5" stroke="#000000" stroke-width="1.5" cx="306.3527" cy="-429.0986" rx="34.1586" ry="24.1249"/>
<text text-anchor="middle" x="306.3527" y="-434.9133" font-family="Verdana" font-size="14.00" fill="#000000">log</text>
<text text-anchor="middle" x="306.3527" y="-417.8986" font-family="Verdana" font-size="14.00" fill="#000000">Errorf</text>
</g>
<!-- gopros/cmdb/src/cmdb/.main&#45;&gt;gopros/cmdb/src/cmdb/log.Errorf -->
<g id="edge8" class="edge">
<title>gopros/cmdb/src/cmdb/.main&#45;&gt;gopros/cmdb/src/cmdb/log.Errorf</title>
<path fill="none" stroke="#8b4513" d="M66.1331,-365.6909C86.208,-373.7647 116.1805,-385.2223 143,-393.0986 183.276,-404.9268 230.1486,-414.8751 263.3278,-421.2954"/>
<polygon fill="#8b4513" stroke="#8b4513" points="262.6838,-424.7355 273.1628,-423.1728 263.9964,-417.8597 262.6838,-424.7355"/>
</g>
<!-- regexp.MatchString -->
<g id="node11" class="node">
<title>regexp.MatchString</title>
<ellipse fill="#adedad" stroke="#000000" stroke-width="1.5" cx="306.3527" cy="-502.0986" rx="65.1206" ry="24.1249"/>
<text text-anchor="middle" x="306.3527" y="-507.9133" font-family="Verdana" font-size="14.00" fill="#000000">regexp</text>
<text text-anchor="middle" x="306.3527" y="-490.8986" font-family="Verdana" font-size="14.00" fill="#000000">MatchString</text>
</g>
<!-- gopros/cmdb/src/cmdb/.main&#45;&gt;regexp.MatchString -->
<g id="edge9" class="edge">
<title>gopros/cmdb/src/cmdb/.main&#45;&gt;regexp.MatchString</title>
<path fill="none" stroke="#8b4513" d="M53.3111,-372.8623C69.3245,-397.3925 102.5756,-442.6868 143,-466.0986 169.8632,-481.6565 202.7743,-490.4985 231.9987,-495.5205"/>
<polygon fill="#8b4513" stroke="#8b4513" points="231.7396,-499.0234 242.1661,-497.1424 232.8423,-492.1108 231.7396,-499.0234"/>
</g>
<!-- gopros/cmdb/src/cmdb/init_servers.BeginInitServerAutoByPassHost -->
<g id="node12" class="node">
<title>gopros/cmdb/src/cmdb/init_servers.BeginInitServerAutoByPassHost</title>
<ellipse fill="#ffe4b5" stroke="#000000" stroke-width="1.5" cx="306.3527" cy="-575.0986" rx="163.2056" ry="24.1249"/>
<text text-anchor="middle" x="306.3527" y="-580.9133" font-family="Verdana" font-size="14.00" fill="#000000">init_servers</text>
<text text-anchor="middle" x="306.3527" y="-563.8986" font-family="Verdana" font-size="14.00" fill="#000000">BeginInitServerAutoByPassHost</text>
</g>
<!-- gopros/cmdb/src/cmdb/.main&#45;&gt;gopros/cmdb/src/cmdb/init_servers.BeginInitServerAutoByPassHost -->
<g id="edge10" class="edge">
<title>gopros/cmdb/src/cmdb/.main&#45;&gt;gopros/cmdb/src/cmdb/init_servers.BeginInitServerAutoByPassHost</title>
<path fill="none" stroke="#8b4513" d="M47.3963,-373.957C57.4875,-410.9967 85.9539,-496.2874 143,-539.0986 151.8027,-545.7048 161.5791,-551.1439 171.8481,-555.6168"/>
<polygon fill="#8b4513" stroke="#8b4513" points="170.8196,-558.9756 181.4034,-559.4588 173.431,-552.4809 170.8196,-558.9756"/>
</g>
<!-- gopros/cmdb/src/cmdb/log.Infof -->
<g id="node13" class="node">
<title>gopros/cmdb/src/cmdb/log.Infof</title>
<ellipse fill="#ffe4b5" stroke="#000000" stroke-width="1.5" cx="306.3527" cy="-648.0986" rx="29.1141" ry="24.1249"/>
<text text-anchor="middle" x="306.3527" y="-653.9133" font-family="Verdana" font-size="14.00" fill="#000000">log</text>
<text text-anchor="middle" x="306.3527" y="-636.8986" font-family="Verdana" font-size="14.00" fill="#000000">Infof</text>
</g>
<!-- gopros/cmdb/src/cmdb/.main&#45;&gt;gopros/cmdb/src/cmdb/log.Infof -->
<g id="edge11" class="edge">
<title>gopros/cmdb/src/cmdb/.main&#45;&gt;gopros/cmdb/src/cmdb/log.Infof</title>
<path fill="none" stroke="#8b4513" d="M44.4062,-374.2685C49.0714,-421.3738 68.3085,-548.2029 143,-612.0986 177.4454,-641.5654 230.6163,-648.4823 266.8715,-649.3932"/>
<polygon fill="#8b4513" stroke="#8b4513" points="267.0421,-652.8951 277.0793,-649.5032 267.1176,-645.8955 267.0421,-652.8951"/>
</g>
</g>
</svg>
