<?xml version="1.0" encoding="UTF-8" standalone="no"?>
<!DOCTYPE svg PUBLIC "-//W3C//DTD SVG 1.1//EN"
 "http://www.w3.org/Graphics/SVG/1.1/DTD/svg11.dtd">
<!-- Generated by graphviz version 2.40.1 (20161225.0304)
 -->
<!-- Title: gocallvis Pages: 1 -->
<svg width="593pt" height="279pt"
 viewBox="0.00 0.00 592.82 279.10" xmlns="http://www.w3.org/2000/svg" xmlns:xlink="http://www.w3.org/1999/xlink">
<g id="graph0" class="graph" transform="scale(1 1) rotate(0) translate(0 279.0986)">
<title>gocallvis</title>
<polygon fill="#d3d3d3" stroke="transparent" points="0,0 0,-279.0986 592.8211,-279.0986 592.8211,0 0,0"/>
<text text-anchor="middle" x="80.748" y="-8.8986" font-family="Arial" font-size="14.00" fill="#000000">gopros/cmdb/src/cmdb/</text>
<g id="clust1" class="cluster">
<title>cluster_focus</title>
<polygon fill="#e6ecfa" stroke="#000000" stroke-width=".5" points="8,-32.0986 8,-271.0986 584.8211,-271.0986 584.8211,-32.0986 8,-32.0986"/>
<text text-anchor="middle" x="296.4105" y="-252.6986" font-family="Arial" font-size="18.00" fill="#000000">main</text>
</g>
<!-- gopros/cmdb/src/cmdb/.main -->
<g id="node1" class="node">
<title>gopros/cmdb/src/cmdb/.main</title>
<ellipse fill="#add8e6" stroke="#000000" stroke-width=".5" cx="43" cy="-137.0986" rx="27" ry="18"/>
<text text-anchor="middle" x="43" y="-134.406" font-family="Verdana" font-size="14.00" fill="#000000">main</text>
</g>
<!-- fmt.Println -->
<g id="node2" class="node">
<title>fmt.Println</title>
<ellipse fill="#adedad" stroke="#000000" stroke-width="1.5" cx="359.9105" cy="-64.0986" rx="37.9296" ry="24.1249"/>
<text text-anchor="middle" x="359.9105" y="-69.9133" font-family="Verdana" font-size="14.00" fill="#000000">fmt</text>
<text text-anchor="middle" x="359.9105" y="-52.8986" font-family="Verdana" font-size="14.00" fill="#000000">Println</text>
</g>
<!-- gopros/cmdb/src/cmdb/.main&#45;&gt;fmt.Println -->
<g id="edge1" class="edge">
<title>gopros/cmdb/src/cmdb/.main&#45;&gt;fmt.Println</title>
<path fill="none" stroke="#8b4513" d="M66.0335,-127.1501C86.0462,-118.8535 115.9832,-107.269 143,-100.0986 200.3846,-84.8685 268.1056,-74.8564 312.4222,-69.3435"/>
<polygon fill="#8b4513" stroke="#8b4513" points="313.1078,-72.786 322.612,-68.104 312.2625,-65.8372 313.1078,-72.786"/>
</g>
<!-- (*gopros/cmdb/src/cmdb/dao.DBInfo).AddDiffHardwareInfoFromToc -->
<g id="node3" class="node">
<title>(*gopros/cmdb/src/cmdb/dao.DBInfo).AddDiffHardwareInfoFromToc</title>
<ellipse fill="#ffe4b5" stroke="#000000" stroke-width="1.5" cx="359.9105" cy="-137.0986" rx="204.6139" ry="24.1249"/>
<text text-anchor="middle" x="359.9105" y="-142.9133" font-family="Verdana" font-size="14.00" fill="#000000">dao</text>
<text text-anchor="middle" x="359.9105" y="-125.8986" font-family="Verdana" font-size="14.00" fill="#000000">(*DBInfo).AddDiffHardwareInfoFromToc</text>
</g>
<!-- gopros/cmdb/src/cmdb/.main&#45;&gt;(*gopros/cmdb/src/cmdb/dao.DBInfo).AddDiffHardwareInfoFromToc -->
<g id="edge2" class="edge">
<title>gopros/cmdb/src/cmdb/.main&#45;&gt;(*gopros/cmdb/src/cmdb/dao.DBInfo).AddDiffHardwareInfoFromToc</title>
<path fill="none" stroke="#8b4513" d="M70.0196,-137.0986C88.578,-137.0986 115.1475,-137.0986 144.76,-137.0986"/>
<polygon fill="#8b4513" stroke="#8b4513" points="144.912,-140.5987 154.9119,-137.0986 144.9119,-133.5987 144.912,-140.5987"/>
</g>
<!-- (*gopros/cmdb/src/cmdb/dao.DBInfo).UpdateTableHardwareInfoByDiff -->
<g id="node4" class="node">
<title>(*gopros/cmdb/src/cmdb/dao.DBInfo).UpdateTableHardwareInfoByDiff</title>
<ellipse fill="#ffe4b5" stroke="#000000" stroke-width="1.5" cx="359.9105" cy="-210.0986" rx="216.8211" ry="24.1249"/>
<text text-anchor="middle" x="359.9105" y="-215.9133" font-family="Verdana" font-size="14.00" fill="#000000">dao</text>
<text text-anchor="middle" x="359.9105" y="-198.8986" font-family="Verdana" font-size="14.00" fill="#000000">(*DBInfo).UpdateTableHardwareInfoByDiff</text>
</g>
<!-- gopros/cmdb/src/cmdb/.main&#45;&gt;(*gopros/cmdb/src/cmdb/dao.DBInfo).UpdateTableHardwareInfoByDiff -->
<g id="edge3" class="edge">
<title>gopros/cmdb/src/cmdb/.main&#45;&gt;(*gopros/cmdb/src/cmdb/dao.DBInfo).UpdateTableHardwareInfoByDiff</title>
<path fill="none" stroke="#8b4513" d="M66.0335,-147.0472C86.0462,-155.3438 115.9832,-166.9282 143,-174.0986 165.3566,-180.0322 189.282,-185.1737 212.7812,-189.5658"/>
<polygon fill="#8b4513" stroke="#8b4513" points="212.3537,-193.0456 222.8203,-191.4023 213.6134,-186.1598 212.3537,-193.0456"/>
</g>
</g>
</svg>
